<svg xmlns="http://www.w3.org/2000/svg" width="24" height="24"><path fill="#59adeb" d="M19.945 7.922v.516a11.62 11.62 0 0 1-.773 4.148c-.515 1.36-1.25 2.602-2.203 3.727s-2.188 2.04-3.703 2.742-3.18 1.055-4.99 1.055a11.42 11.42 0 0 1-6.282-1.828c.312.03.64.047.984.047 1.905 0 3.61-.578 5.11-1.733-.907-.03-1.71-.313-2.414-.845s-1.18-1.203-1.43-2.016a3.05 3.05 0 0 0 .75.094c.375 0 .733-.063 1.078-.188-.937-.188-1.72-.656-2.344-1.406s-.938-1.61-.938-2.578V9.61a4.43 4.43 0 0 0 1.876.515c-1.22-.842-1.83-1.983-1.83-3.42 0-.75.188-1.438.563-2.063 1.03 1.25 2.273 2.25 3.726 3a11.55 11.55 0 0 0 4.711 1.266c-.063-.313-.094-.625-.094-.938 0-1.125.398-2.086 1.195-2.883S14.695 3.89 15.82 3.89c1.188 0 2.188.422 3 1.266.938-.188 1.813-.516 2.625-.984-.313.968-.922 1.718-1.828 2.25.844-.094 1.64-.297 2.39-.61-.563.812-1.25 1.516-2.063 2.11z"/></svg>